<svg id="Layer_1" data-name="Layer 1" xmlns="http://www.w3.org/2000/svg" xmlns:xlink="http://www.w3.org/1999/xlink" viewBox="0 0 1280 800"><defs><style>.cls-1{fill:url(#linear-gradient);}.cls-2{fill:url(#linear-gradient-2);}.cls-3{fill:url(#linear-gradient-3);}.cls-4{fill:url(#linear-gradient-4);}.cls-5{fill:url(#linear-gradient-5);}.cls-6{fill:url(#linear-gradient-6);}.cls-7{fill:url(#linear-gradient-7);}.cls-8{fill:url(#linear-gradient-8);}.cls-9{fill:url(#linear-gradient-9);}.cls-10{fill:url(#linear-gradient-10);}.cls-11{fill:url(#linear-gradient-11);}.cls-12{fill:url(#linear-gradient-12);}.cls-13{fill:url(#linear-gradient-13);}</style><linearGradient id="linear-gradient" x1="619.95" y1="497.41" x2="932.26" y2="497.41" gradientUnits="userSpaceOnUse"><stop offset="0.01" stop-color="#050538"/><stop offset="0.03" stop-color="#050537"/><stop offset="0.64" stop-color="#02021b"/><stop offset="1" stop-color="#010111"/></linearGradient><linearGradient id="linear-gradient-2" x1="665.39" y1="334.66" x2="792.25" y2="334.66" xlink:href="#linear-gradient"/><linearGradient id="linear-gradient-3" x1="593.37" y1="486.42" x2="865.25" y2="486.42" gradientUnits="userSpaceOnUse"><stop offset="0.01" stop-color="#626268"/><stop offset="0.65" stop-color="#3d3d40"/><stop offset="1" stop-color="#2e2e30"/></linearGradient><linearGradient id="linear-gradient-4" x1="320.74" y1="336.12" x2="780.28" y2="336.12" gradientUnits="userSpaceOnUse"><stop offset="0.28" stop-color="#f76806"/><stop offset="0.4" stop-color="#f26606"/><stop offset="0.53" stop-color="#e46006"/><stop offset="0.67" stop-color="#ce5705"/><stop offset="0.82" stop-color="#ae4905"/><stop offset="0.96" stop-color="#853804"/><stop offset="1" stop-color="#7a3404"/></linearGradient><linearGradient id="linear-gradient-5" x1="327.92" y1="404.88" x2="781.48" y2="404.88" gradientUnits="userSpaceOnUse"><stop offset="0" stop-color="#ff6801"/><stop offset="0.16" stop-color="#f16301"/><stop offset="0.45" stop-color="#cd5402"/><stop offset="0.84" stop-color="#933e03"/><stop offset="1" stop-color="#7a3404"/></linearGradient><linearGradient id="linear-gradient-6" x1="411.69" y1="572.8" x2="602.57" y2="572.8" gradientUnits="userSpaceOnUse"><stop offset="0" stop-color="#ff6801"/><stop offset="0.14" stop-color="#f56401"/><stop offset="0.38" stop-color="#d95902"/><stop offset="0.7" stop-color="#ac4803"/><stop offset="1" stop-color="#7a3404"/></linearGradient><linearGradient id="linear-gradient-7" x1="371.3" y1="544.41" x2="442.69" y2="544.41" gradientUnits="userSpaceOnUse"><stop offset="0.01" stop-color="#ff6801"/><stop offset="0.32" stop-color="#cc5402"/><stop offset="0.62" stop-color="#a04303"/><stop offset="0.86" stop-color="#843804"/><stop offset="1" stop-color="#7a3404"/></linearGradient><linearGradient id="linear-gradient-8" x1="419.29" y1="458.07" x2="486.54" y2="458.07" xlink:href="#linear-gradient-7"/><linearGradient id="linear-gradient-9" x1="469.16" y1="398.59" x2="521.62" y2="398.59" gradientUnits="userSpaceOnUse"><stop offset="0.01" stop-color="#ff6801"/><stop offset="1" stop-color="#7a3404"/></linearGradient><linearGradient id="linear-gradient-10" x1="492.2" y1="354.55" x2="565.45" y2="354.55" xlink:href="#linear-gradient-7"/><linearGradient id="linear-gradient-11" x1="536.54" y1="299.45" x2="589" y2="299.45" xlink:href="#linear-gradient-7"/><linearGradient id="linear-gradient-12" x1="557.16" y1="238.15" x2="623.83" y2="238.15" gradientUnits="userSpaceOnUse"><stop offset="0" stop-color="#ff6801"/><stop offset="1" stop-color="#7a3404"/></linearGradient><linearGradient id="linear-gradient-13" x1="605.2" y1="161.76" x2="678.78" y2="161.76" xlink:href="#linear-gradient-7"/></defs><title>Ability-brand</title><path class="cls-1" d="M824.56,422s-56.25,47.87-7.18,232.16c0,0-74.2-108.9-44.28-197.46,0,0,26.33-123.26,118.47-101.72,0,0-12-80.18-62.23-80.18,0,0,40.69,17.95,47.87,61,0,0-47.87-61-111.29,27.53l82.57-26.33s-153.18,34.7-192.67,268.06c0,0,7.18-71.8,59.84-199.85,0,0-201,209.43-20.35,270.46,0,0-9.57-140,20.35-181.9,0,0-15.56,95.74,33.5,196.26L932.26,720Z"/><path class="cls-2" d="M665.39,375.34s16.76-33.5,46.68-43.08c0,0,71.8-4.78,80.18-38.29,0,0,0,33.51-23.94,62.23l-2.39-9.58s-7.18,13.17-19.15,16.76S718.05,349,718.05,349,701.3,346.62,665.39,375.34Z"/><path class="cls-3" d="M692.92,673.33s-168.74-37.1,22.74-262.08c0,0-76.59,92.14-59.84,190.27,0,0,37.1-195.06,183.1-263.27,0,0-49.07,10.77-75.4,27.52,2.4,9.57,38.3-56.25,101.73-40.69,0,0-13.17-15.56-43.09-14.36,0,0,7.18-9.57,28.73-8.38,0,0-50.27-20.34-81.38,47.87L765.92,343s-4.79,12-10.77,14.36c0,0,3.59,1.2-6,4.79s-32.31-1.2-32.31-4.79-56.24,20.35-122.06,92.15l73-41.88S484.69,615.89,692.92,673.33Z"/><path class="cls-4" d="M320.74,606.31,701.3,63l79,210.62S714.46,240.11,558.89,426.8C558.89,426.8,393.74,636.23,320.74,606.31Z"/><path class="cls-5" d="M751.56,201.82s-108.9,51.46-180.71,173.52c0,0-124.46,209.43-242.93,232.17,0,0,63.42,12,160.36-89.76,0,0,195.06-265.67,293.2-242.93Z"/><path class="cls-6" d="M411.69,625.46,593,659.57S538.54,596.74,602.57,486c0,0-21,6.58-55.05,44.28S483.49,615.89,411.69,625.46Z"/><path class="cls-7" d="M390,513.79l-1.74,7.68,15.82-2.75,1.17-2.6L391,518.59l1.74-7.85,1.29-1.31-1.64,7.49,13.52-2.33c.2-.55.31-.86.34-1l.75-2.3a23.27,23.27,0,0,0,.83-2.66,16.61,16.61,0,0,0,7.54-1.47c-.81,1.07-1.4,1.86-1.75,2.35a43.24,43.24,0,0,0-5,8.34L426.26,515l8.53-6.76L414.28,536.9l3.16-9.58-10.64,1.9A66.49,66.49,0,0,0,404.37,542l-1.06,1.22a77.39,77.39,0,0,1,2.54-13.29l.12-.6-1.7.42a59,59,0,0,0-3.17,14.64l-1.34.58q-3.86,1.71-9.37,4.7l-.66.39q.47,6.94,2.71,8.55a3.34,3.34,0,0,0,3.11.39,50.5,50.5,0,0,0,7.27-3.69l1.48-.83-21.94,30.65-1.38.73L401.66,557l-1.13.65a32.21,32.21,0,0,1-6.13,3,3.4,3.4,0,0,1-3-.41q-2.14-1.53-3-9.29l-2.75,1.81a28.6,28.6,0,0,0,.63,3.29l.81,3.4c.41,1.85,1,3,1.76,3.58a2.85,2.85,0,0,0,2.72.32,28.53,28.53,0,0,0,5.38-3l1.13-.73L377.72,588q4.25-9.22,5-15.85a42.73,42.73,0,0,0-1.39-15.2l-.13-.43a42.71,42.71,0,0,0-7.37,7.85,23.12,23.12,0,0,0-.14-7.39c.56-.4.9-.65,1-.73l2.71-1.92c.93-.65,2-1.46,3.18-2.45l-.2-1.68-.69.53c-2,1.45-3.61,2.69-4.91,3.7l-.51.41.19-1.24q2.88-2.49,5.84-4.57L378,535.65l-6.7,4.3Zm-7.55,19.66,2.37,15.34a93.58,93.58,0,0,1,8.55-5.12l3.22-1.65.68-.37a4.84,4.84,0,0,0,.17-.73l.21-1c0-.15.09-.43.18-.82a67.54,67.54,0,0,0-10.72,6.31L385.23,533Zm4.26-.81,1.63,10.6a4.16,4.16,0,0,1,.66-.38l2.63-1.64a56.83,56.83,0,0,1,5.77-3.08l.72-.34a69.11,69.11,0,0,1,1.89-7.4Zm25.66-28.25c1.85.08,5.07-.77,9.66-2.52-.64.8-1,1.26-1.08,1.37l-3.44,4.49q-2.34,3-3.36,4.47l-.79,1.15,16.1-2.81,13.2-9.7L419.17,533.7l-1.34.68,21.57-30.14-10.66,7.82-17.13,3q1.2-2.07,3-4.56c1.47-2,3.15-4.27,5.07-6.68l-1,.35q-5.08,1.86-8,1.68Z"/><path class="cls-8" d="M419.29,479a157.43,157.43,0,0,1,18.4-32.67q8.73-12.19,16.28-18.46t10.77-4q4.29,3.07-3.85,17.5l.23.17c.74-.85,1.64-1.87,2.7-3a37.17,37.17,0,0,0,4.86-11.5c.6-3.21.1-5.38-1.48-6.51q-3-2.13-10.05,2.85l-.13-.09.64-.49q7.44-5.91,10.76-3.54,4.59,3.29-2.79,17.4a33.79,33.79,0,0,1,8.89-6.73c2.64-1.22,4.69-1.32,6.14-.28q3.13,2.25.63,9.72T471.47,457l-29.08,40.63,3.12-9.6-9.1-6.52q-2.4,3.36-5.35,8h-.94q3.44-5.17,5.74-8.42l-1.11-.8-1,1.42q-2.28,3.18-5.56,8.13l-.24-3.95.68-.89q1.63-2.16,2.46-3.3c.81-1.14,1.46-2,2-2.62l-7.91-5.66Zm12.4-18,9.48,6.79c.29-.43.48-.72.59-.87l.75-1,.69-1-8.59-6.16a68.37,68.37,0,0,1,6-10.13,48.31,48.31,0,0,1,6.75-7.92,15.87,15.87,0,0,1,6.19-3.5l-1.47,1.35Q446.63,441.1,441,449a38.4,38.4,0,0,0-4.76,8.61l8.07,5.78L446,461q7.75-10.83,10.22-17.1t-.29-8.23q-2.42-1.73-7.05,1.61t-9.75,10.48A69.75,69.75,0,0,0,431.69,461Zm11.21,8,11.58,8.29,2-2.84-10.32-7.38q2.78-4.11,4-5.87A123.15,123.15,0,0,1,460.65,448a18.61,18.61,0,0,1,7.29-4.95l-.49.68a26.12,26.12,0,0,0-7,5.54,125.84,125.84,0,0,0-9.37,11.92l-3.29,4.68,9.81,7,1.31-1.82,5.78-8.3q11-16.3,5.7-20.13-3.34-2.38-8.35,2t-15.37,18.87Q445.65,464.94,442.9,469Zm31.89-41.45q6.09-4.83,9.65-2.28t1.07,11q-2.44,8.2-11.58,21L446.3,495.79l-1.25.56,25.63-35.81q8.37-11.69,11.18-17.48,6.22-12.88,1.33-16.39-2.73-1.95-8.7,1.67Z"/><path class="cls-9" d="M469.16,403.24l19.26-26.9L485.83,386l21.88,15.67,7.35-5.56-18.93,26.44,3.23-9.61-21.92-15.7Zm22.28-28.6-2,7.31,21.42,15.33,10.78-6.7-21.13,29.51-1.58,1,19.74-27.58-8.74,5.5L488.1,383.41l2.23-8.1Z"/><path class="cls-10" d="M492.2,367.72l19.42-27.13-2.85,10.06,22.47,16.09.32-.46,1.53-2,.36-.51-22.32-16,2.1-7.77,1-.47-1.86,7,22.07,15.79c1.27-1.66,2.47-3.26,3.58-4.82q6.45-9,8.28-14.7t-.43-9.72q9.55-1.23,15.68-5.34L519.17,387l3.23-9.53L500.48,361.8Zm73.19-45.63.06,3.91L523,385.25l-1.58,1,43-60-.15-2.6a45.49,45.49,0,0,1-13.47,5.46l-.4.06,1.55-1.63.65-.14a59.2,59.2,0,0,0,12.23-5Z"/><path class="cls-11" d="M536.54,304.1l19.26-26.9-2.59,9.65,21.88,15.66,7.35-5.55L563.51,323.4l3.23-9.62-21.93-15.69Zm22.28-28.6-2,7.31,21.42,15.33,10.78-6.7L567.87,321l-1.58,1L586,294.38l-8.74,5.5-21.82-15.62,2.24-8.09Z"/><path class="cls-12" d="M606.07,205.3c0,.51,0,.85,0,1l-.24,5.67a22.08,22.08,0,0,0,.73,6.09l0,.19-.55.46-.4,0A10.39,10.39,0,0,0,599,221q-3.11,2.38-7.57,8.62c-1.22,1.7-2.41,3.43-3.57,5.17l-.49.68,22.79,16.31,7.08-5.06-18.56,25.94,3.23-9.71-20.92-15-2.9,4q-4.18,5.84-5.1,8.92a4.93,4.93,0,0,0,.9,5.06l-1.06,1.48a6,6,0,0,1-1-5.88q1.05-3.51,5.68-10l2.46-3.39.44-.62-1-.74q-2.21,2.8-4.07,5.42-5.25,7.32-6.45,11.34t1.17,6.25l-.49.68a48.93,48.93,0,0,0-11.92,2.88l-.45.19Zm-3.69,14.87a54.57,54.57,0,0,0-8.36,9.46c-.62.87-1.25,1.79-1.89,2.77l21.29,14.89,10.41-6.19-20.76,29-1.5.9L621,243.81l-8.66,5.31-21.9-15.68,2.17-3.08a80,80,0,0,1,5.91-7.57A9.16,9.16,0,0,1,602.38,220.17Zm7.57-17.5a37.88,37.88,0,0,0,.25,12.62l0,.38-1.29,1-.06-.3a32.34,32.34,0,0,1-.25-12.45l.08-.38Z"/><path class="cls-13" d="M667.9,119l.43-.18-.25.71a126.58,126.58,0,0,0-6.52,21.84l-1,5.12-5.95,29.58,7.8,7,9.33-5.21L649,203.12l4.17-9.77-7.8-7-18.29,6.06-4,1.26a73.44,73.44,0,0,0-8.55,3.23,98.91,98.91,0,0,0-8.61,4.89l-.68.41L628.79,176l-3.32,8.66,25.2-8.58.51-2.55-22.53,7.6,3-7.17,1.29-.82-2.64,6.18,21.14-7,3.69-17.72q1.57-7.69.11-9-1.23-1.11-6.77,1.88a310.56,310.56,0,0,0,19-27.78Zm3.25-1.3.79.71-.28.69A95.86,95.86,0,0,0,668,129.35q-1.29,4.53-3.22,14l-6,28.64,7.53,6.78,12.45-5.51-29.24,32.46-1.08.15,27.32-30.33-10.71,4.63-7.66-6.91,6.06-29.2.94-4.6A103,103,0,0,1,671.15,117.69Z"/></svg>